<svg width="34" height="34" viewBox="0 0 34 34" fill="none" xmlns="http://www.w3.org/2000/svg">
<path fill-rule="evenodd" clip-rule="evenodd" d="M17.391 1.01802C17.778 1.70479 17.7256 2.55485 17.257 3.18879C15.8772 5.05546 15.2133 7.35536 15.3859 9.67018C15.5585 11.985 16.5562 14.161 18.1976 15.8024C19.839 17.4437 22.015 18.4415 24.3298 18.6141C26.6446 18.7867 28.9445 18.1228 30.8112 16.743C31.4451 16.2744 32.2952 16.2219 32.982 16.609C33.6687 16.996 34.0641 17.7504 33.9915 18.5354C33.6938 21.7567 32.4849 24.8266 30.5061 27.3859C28.5274 29.9452 25.8607 31.888 22.818 32.987C19.7754 34.086 16.4827 34.2958 13.3252 33.5917C10.1677 32.8877 7.27604 31.299 4.98853 29.0114C2.70102 26.7239 1.11229 23.8323 0.408241 20.6748C-0.295804 17.5173 -0.0860461 14.2246 1.01297 11.1819C2.11199 8.13931 4.05481 5.4726 6.6141 3.49385C9.1734 1.5151 12.2433 0.306148 15.4646 0.0084584C16.2496 -0.0640836 17.0039 0.331256 17.391 1.01802ZM11.9509 4.96753C10.9239 5.40236 9.95186 5.96935 9.06076 6.65832C7.10253 8.17236 5.61598 10.2128 4.77507 12.5408C3.93416 14.8689 3.77367 17.3883 4.31237 19.8042C4.85106 22.2202 6.06667 24.4327 7.81696 26.183C9.56724 27.9333 11.7798 29.1489 14.1957 29.6876C16.6117 30.2263 19.1311 30.0658 21.4591 29.2249C23.7872 28.384 25.8276 26.8974 27.3417 24.9392C28.0306 24.0481 28.5976 23.0761 29.0324 22.0491C27.4268 22.5372 25.7324 22.7298 24.0323 22.603C20.7621 22.3592 17.688 20.9496 15.3692 18.6308C13.0504 16.312 11.6408 13.2379 11.3969 9.96765C11.2702 8.26757 11.4628 6.57318 11.9509 4.96753Z" fill="white"/>
</svg>
