<svg width="34" height="34" viewBox="0 0 34 34" fill="none" xmlns="http://www.w3.org/2000/svg">
<path fill-rule="evenodd" clip-rule="evenodd" d="M17 0C18.1046 0 19 0.89543 19 2V4.72727C19 5.83184 18.1046 6.72727 17 6.72727C15.8954 6.72727 15 5.83184 15 4.72727V2C15 0.89543 15.8954 0 17 0ZM4.9767 4.9767C5.75774 4.19565 7.02407 4.19565 7.80512 4.9767L9.74149 6.91306C10.5225 7.69411 10.5225 8.96044 9.74149 9.74149C8.96044 10.5225 7.69411 10.5225 6.91306 9.74149L4.9767 7.80512C4.19565 7.02407 4.19565 5.75774 4.9767 4.9767ZM29.0233 4.9767C29.8044 5.75774 29.8044 7.02407 29.0233 7.80512L27.0869 9.74149C26.3059 10.5225 25.0396 10.5225 24.2585 9.74149C23.4775 8.96044 23.4775 7.69411 24.2585 6.91306L26.1949 4.9767C26.9759 4.19565 28.2423 4.19565 29.0233 4.9767ZM17 12.1818C14.339 12.1818 12.1818 14.339 12.1818 17C12.1818 19.661 14.339 21.8182 17 21.8182C19.661 21.8182 21.8182 19.661 21.8182 17C21.8182 14.339 19.661 12.1818 17 12.1818ZM8.18182 17C8.18182 12.1299 12.1299 8.18182 17 8.18182C21.8701 8.18182 25.8182 12.1299 25.8182 17C25.8182 21.8701 21.8701 25.8182 17 25.8182C12.1299 25.8182 8.18182 21.8701 8.18182 17ZM0 17C0 15.8954 0.89543 15 2 15H4.72727C5.83184 15 6.72727 15.8954 6.72727 17C6.72727 18.1046 5.83184 19 4.72727 19H2C0.89543 19 0 18.1046 0 17ZM27.2727 17C27.2727 15.8954 28.1682 15 29.2727 15H32C33.1046 15 34 15.8954 34 17C34 18.1046 33.1046 19 32 19H29.2727C28.1682 19 27.2727 18.1046 27.2727 17ZM9.74149 24.2585C10.5225 25.0396 10.5225 26.3059 9.74149 27.0869L7.80512 29.0233C7.02407 29.8044 5.75774 29.8044 4.9767 29.0233C4.19565 28.2423 4.19565 26.9759 4.9767 26.1949L6.91306 24.2585C7.69411 23.4775 8.96044 23.4775 9.74149 24.2585ZM24.2585 24.2585C25.0396 23.4775 26.3059 23.4775 27.0869 24.2585L29.0233 26.1949C29.8044 26.9759 29.8044 28.2423 29.0233 29.0233C28.2423 29.8044 26.9759 29.8044 26.1949 29.0233L24.2585 27.0869C23.4775 26.3059 23.4775 25.0396 24.2585 24.2585ZM17 27.2727C18.1046 27.2727 19 28.1682 19 29.2727V32C19 33.1046 18.1046 34 17 34C15.8954 34 15 33.1046 15 32V29.2727C15 28.1682 15.8954 27.2727 17 27.2727Z" fill="white"/>
</svg>
