<svg width="450" height="450" viewBox="0 0 450 450" fill="none" xmlns="http://www.w3.org/2000/svg">
<path d="M363.085 15.626C359.342 12.7324 353.904 13.8219 351.562 17.9325L334.229 48.3714L382.421 85.6278L407.514 61.1877C410.903 57.886 410.588 52.3497 406.845 49.4561L363.085 15.626Z" fill="#222222"/>
<path d="M345.113 29.2586L334.229 48.3714L382.421 85.6278L398.177 70.2813L345.113 29.2586Z" fill="#010101"/>
<path d="M345.513 202.492L345.575 202.553C345.543 202.515 345.519 202.476 345.487 202.439C344.629 200.651 343.739 198.875 342.817 197.112C335.427 182.996 333.969 166.359 340.185 151.687C340.854 150.108 341.543 148.636 342.219 147.288C344.869 142.004 348.168 137.044 352.327 132.845C370.064 114.938 391.923 116.884 391.923 116.884L301.587 47.0471C301.587 47.0471 308.975 67.7116 296.112 89.386C293.096 94.4691 289.126 98.9116 284.681 102.806C283.547 103.799 282.295 104.836 280.935 105.882C268.3 115.591 251.833 118.372 236.311 114.775C234.373 114.326 232.43 113.912 230.483 113.532C230.439 113.51 230.396 113.497 230.351 113.475L230.426 113.521C168.261 101.389 101.417 126.202 63.4602 183.764C18.416 252.072 32.1657 344.758 94.9318 397.249C165.995 456.68 271.507 444.725 327.642 372.113C366.48 321.876 371.226 256.091 345.513 202.492Z" fill="#DBDBDB"/>
<path d="M407.88 95.8557L315.729 24.6158C309.962 20.1577 301.675 21.2183 297.216 26.9858C292.758 32.7525 293.818 41.0401 299.585 45.4982L391.736 116.738C397.503 121.196 405.791 120.136 410.249 114.37C414.708 108.602 413.646 100.314 407.88 95.8557Z" fill="#DBDBDB"/>
<path d="M301.588 47.0462C301.588 47.0462 304.597 55.5498 303.393 67.3487L371.821 120.249C382.937 116.113 391.924 116.884 391.924 116.884L301.588 47.0462Z" fill="#BCBCBC"/>
<path d="M217.558 134.703C217.558 134.703 184.389 118.883 150.576 149.817C146.901 153.178 146.672 158.957 150.017 162.646C155.286 168.459 164.987 176.089 180.894 178.579C188.034 179.698 195.312 179.373 202.424 178.082C211.141 176.503 222.936 173.072 229.863 165.68C236.712 158.369 235.175 146.628 227.251 140.499C224.596 138.446 221.343 136.355 217.558 134.703Z" fill="white"/>
<path d="M71.7639 243.777C74.621 234.297 78.4621 225.419 83.1334 217.205C94.4654 197.281 119.071 189.099 140.025 198.387C172.531 212.797 200.033 245.075 208.538 255.77C210.579 258.336 212.695 260.851 215.006 263.178C245.693 294.082 275.638 300.91 298.015 299.953C310.678 299.412 319.813 311.908 315.536 323.841L315.435 324.122C290.478 393.491 211.945 428.155 143.239 398.258C84.1412 372.543 53.1678 305.486 71.7639 243.777Z" fill="#00FF75"/>
<path d="M282.2 283.409C287.568 290.427 313.368 291.976 320.386 286.608C327.404 281.24 327.366 263.814 321.998 256.796C316.63 249.778 292.206 255.615 285.188 260.982C278.17 266.35 276.832 276.391 282.2 283.409Z" fill="#00FF75"/>
</svg>
