<svg width="550" height="550" viewBox="0 0 550 550" fill="none" xmlns="http://www.w3.org/2000/svg">
<path d="M453.045 1.63403C449.318 -1.27383 443.903 -0.178969 441.572 3.95195L424.312 34.5409L472.3 71.9811L497.286 47.4205C500.661 44.1025 500.347 38.5388 496.619 35.631L453.045 1.63403Z" fill="#222222"/>
<path d="M435.15 15.3338L424.312 34.5409L472.3 71.9811L487.989 56.5589L435.15 15.3338Z" fill="#010101"/>
<path d="M435.547 189.421L435.61 189.483C435.578 189.445 435.554 189.406 435.522 189.369C434.668 187.571 433.782 185.787 432.863 184.015C425.504 169.83 424.053 153.111 430.242 138.367C430.908 136.779 431.594 135.3 432.267 133.945C434.906 128.635 438.191 123.65 442.333 119.431C459.994 101.436 481.761 103.391 481.761 103.391L391.808 33.2101C391.808 33.2101 399.165 53.9766 386.356 75.7579C383.353 80.866 379.4 85.3304 374.973 89.2441C373.844 90.2418 372.598 91.2839 371.243 92.3357C358.662 102.092 342.265 104.887 326.809 101.272C324.879 100.821 322.945 100.405 321.006 100.023C320.962 100.001 320.918 99.9876 320.874 99.9661L320.949 100.012C259.047 87.8203 192.487 112.756 154.691 170.601C109.837 239.246 123.529 332.39 186.029 385.139C256.791 444.863 361.856 432.849 417.753 359.879C456.426 309.395 461.152 243.285 435.547 189.421Z" fill="#DBDBDB"/>
<path d="M497.65 82.2595L405.89 10.6682C400.148 6.18807 391.895 7.25395 387.455 13.0499C383.016 18.845 384.072 27.1735 389.815 31.6536L481.575 103.245C487.317 107.725 495.57 106.66 500.009 100.865C504.449 95.0687 503.392 86.7396 497.65 82.2595Z" fill="#DBDBDB"/>
<path d="M391.809 33.2092C391.809 33.2092 394.805 41.7548 393.607 53.6119L461.745 106.773C472.813 102.616 481.762 103.391 481.762 103.391L391.809 33.2092Z" fill="#BCBCBC"/>
<path d="M308.135 121.299C308.135 121.299 275.107 105.4 241.437 136.487C237.778 139.864 237.549 145.672 240.88 149.379C246.127 155.221 255.787 162.889 271.627 165.391C278.737 166.515 285.983 166.189 293.065 164.892C301.746 163.305 313.491 159.856 320.388 152.429C327.208 145.082 325.677 133.283 317.787 127.123C315.143 125.06 311.904 122.959 308.135 121.299Z" fill="white"/>
<path fill-rule="evenodd" clip-rule="evenodd" d="M326.48 279.044C333.354 279.044 338.927 273.42 338.927 266.482C338.927 259.545 333.354 253.921 326.48 253.921C319.606 253.921 314.033 259.545 314.033 266.482C314.033 273.42 319.606 279.044 326.48 279.044ZM326.48 284.069C336.104 284.069 343.906 276.195 343.906 266.482C343.906 256.77 336.104 248.896 326.48 248.896C316.856 248.896 309.054 256.77 309.054 266.482C309.054 276.195 316.856 284.069 326.48 284.069Z" fill="white"/>
<path d="M162.959 230.911C165.804 221.383 169.629 212.462 174.281 204.208C185.564 184.185 210.065 175.963 230.931 185.297C263.299 199.778 290.684 232.215 299.153 242.962C301.186 245.542 303.293 248.069 305.594 250.407C336.151 281.463 365.969 288.325 388.252 287.363C400.861 286.819 409.957 299.377 405.698 311.369L405.598 311.652C380.747 381.363 302.546 416.198 234.131 386.154C175.284 360.312 144.442 292.924 162.959 230.911Z" fill="#00FF75"/>
<path d="M372.503 270.738C377.848 277.79 403.539 279.347 410.527 273.953C417.515 268.559 417.477 251.046 412.132 243.994C406.787 236.941 382.467 242.807 375.479 248.201C368.49 253.595 367.158 263.685 372.503 270.738Z" fill="#00FF75"/>
<path d="M1.34283 414.763C0.393994 413.721 -0.0520107 412.518 0.00481675 411.155C0.0616442 409.792 0.606149 408.632 1.63833 407.674L49.283 363.473C50.3621 362.472 51.5535 362.022 52.8573 362.123C54.208 362.18 55.3577 362.73 56.3066 363.772L85.548 395.875C86.5399 396.964 87.0094 398.144 86.9564 399.417C86.9502 400.645 86.4311 401.739 85.3989 402.696C84.4136 403.61 83.3141 404.019 82.1004 403.922C80.8867 403.825 79.7838 403.231 78.7919 402.142L52.9145 373.733L35.8131 389.598L54.3801 409.982C55.3721 411.071 55.8416 412.252 55.7885 413.524C55.7824 414.753 55.2867 415.824 54.3014 416.738C53.3162 417.652 52.1932 418.082 50.9326 418.029C49.7188 417.932 48.616 417.339 47.624 416.25L29.057 395.866L8.36644 415.061C7.33426 416.018 6.14282 416.469 4.79213 416.411C3.44143 416.354 2.29167 415.804 1.34283 414.763Z" fill="black"/>
<path d="M52.6794 465.835C51.595 464.938 50.986 463.811 50.8525 462.453C50.719 461.096 51.0966 459.87 51.9852 458.775L93.0039 408.257C93.933 407.113 95.0499 406.499 96.3548 406.414C97.7001 406.279 98.9149 406.66 99.9994 407.557C101.133 408.494 101.742 409.622 101.826 410.938C102 412.246 101.623 413.472 100.694 414.617L59.6749 465.134C58.7862 466.229 57.6693 466.844 56.324 466.978C55.028 467.154 53.8132 466.773 52.6794 465.835Z" fill="black"/>
<path d="M81.5564 487.898C80.3558 487.167 79.5931 486.139 79.2682 484.815C78.9979 483.524 79.2247 482.273 79.9488 481.061L113.372 425.133C114.096 423.921 115.114 423.151 116.426 422.823C117.739 422.496 118.968 422.68 120.114 423.378C121.314 424.109 122.077 425.136 122.402 426.461C122.727 427.785 122.527 429.053 121.803 430.265L90.9474 481.897L120.58 499.933C121.78 500.664 122.543 501.692 122.868 503.016C123.193 504.34 122.993 505.608 122.269 506.82C121.545 508.032 120.527 508.801 119.215 509.129C117.903 509.457 116.646 509.256 115.446 508.525L81.5564 487.898Z" fill="black"/>
<path d="M142.076 520.89C140.756 520.411 139.809 519.554 139.233 518.32C138.657 517.085 138.606 515.802 139.081 514.471L160.99 453.015C161.486 451.623 162.335 450.667 163.536 450.146C164.759 449.565 166.031 449.514 167.35 449.993L208.007 464.755C209.386 465.256 210.344 466.082 210.882 467.234C211.441 468.326 211.483 469.537 211.008 470.869C210.555 472.139 209.769 473.016 208.649 473.498C207.529 473.98 206.279 473.97 204.9 473.469L168.92 460.406L161.057 482.465L186.872 491.838C188.251 492.339 189.21 493.165 189.747 494.317C190.306 495.409 190.359 496.59 189.906 497.861C189.453 499.132 188.656 500.038 187.514 500.581C186.394 501.063 185.145 501.053 183.765 500.552L157.95 491.179L149.86 513.873L185.839 526.937C187.218 527.438 188.188 528.234 188.747 529.326C189.306 530.417 189.359 531.599 188.906 532.869C188.431 534.201 187.623 535.138 186.481 535.68C185.361 536.162 184.112 536.153 182.732 535.652L142.076 520.89Z" fill="black"/>
<path d="M241.763 547.758C236.644 547.084 231.965 545.495 227.725 542.991C223.557 540.432 220.021 537.21 217.117 533.325C214.284 529.385 212.221 524.963 210.926 520.057C209.695 515.161 209.43 510.002 210.131 504.581C210.823 499.224 212.382 494.37 214.808 490.019C217.306 485.613 220.42 481.904 224.151 478.893C227.954 475.826 232.194 473.595 236.873 472.2C241.552 470.806 246.483 470.449 251.665 471.131C256.531 471.772 260.619 472.958 263.93 474.691C267.304 476.433 270.571 479.003 273.73 482.402C274.186 482.852 274.512 483.316 274.707 483.796C274.974 484.22 275.11 484.66 275.115 485.114C275.192 485.514 275.194 486 275.119 486.574C274.963 487.786 274.389 488.748 273.397 489.461C272.476 490.118 271.407 490.431 270.19 490.401C268.981 490.307 267.866 489.738 266.844 488.696C264.769 486.347 262.538 484.464 260.151 483.047C257.826 481.639 254.61 480.664 250.503 480.124C246.774 479.633 243.168 479.937 239.684 481.035C236.2 482.133 233.021 483.855 230.148 486.201C227.337 488.555 225.006 491.426 223.154 494.815C221.31 498.139 220.129 501.811 219.61 505.828C219.082 509.91 219.283 513.828 220.212 517.583C221.149 521.273 222.676 524.62 224.795 527.623C226.976 530.634 229.611 533.121 232.7 535.084C235.796 536.984 239.209 538.179 242.937 538.67C246.16 539.094 249.263 538.951 252.247 538.241C255.302 537.476 258.285 536.279 261.194 534.651C262.439 533.972 263.59 533.767 264.648 534.036C265.777 534.249 266.667 534.82 267.319 535.749C267.978 536.615 268.217 537.749 268.036 539.152C267.953 539.789 267.744 540.41 267.409 541.015C267.082 541.556 266.633 542.048 266.062 542.492C262.295 544.785 258.362 546.375 254.262 547.262C250.226 548.158 246.06 548.323 241.763 547.758Z" fill="#00FF75"/>
<path d="M295.455 549.965C294.061 550.118 292.838 549.768 291.784 548.913C290.73 548.059 290.127 546.928 289.975 545.521L282.965 480.593C282.806 479.123 283.153 477.887 284.007 476.888C284.854 475.824 285.974 475.216 287.368 475.063C288.825 474.902 290.049 475.253 291.039 476.115C292.086 476.905 292.689 478.036 292.848 479.506L295.82 507.031L339.914 502.182L336.942 474.657C336.783 473.187 337.13 471.951 337.984 470.952C338.831 469.888 339.951 469.28 341.345 469.127C342.802 468.966 344.026 469.317 345.016 470.178C346 470.976 346.571 472.11 346.73 473.581L353.741 538.509C353.892 539.916 353.577 541.147 352.793 542.204C352.01 543.26 350.89 543.869 349.432 544.029C348.039 544.182 346.815 543.832 345.761 542.977C344.707 542.123 344.104 540.992 343.952 539.585L340.867 511.005L296.772 515.855L299.858 544.434C300.01 545.841 299.663 547.076 298.816 548.14C298.033 549.196 296.912 549.805 295.455 549.965Z" fill="#00FF75"/>
<path d="M385.076 534.977C383.753 535.445 382.482 535.383 381.264 534.791C380.045 534.2 379.205 533.236 378.741 531.901L357.348 470.26C356.864 468.864 356.925 467.581 357.532 466.412C358.119 465.183 359.073 464.334 360.397 463.867L401.176 449.452C402.559 448.963 403.819 448.995 404.956 449.547C406.072 450.038 406.862 450.952 407.325 452.287C407.768 453.562 407.705 454.743 407.137 455.829C406.568 456.916 405.593 457.704 404.209 458.193L368.122 470.949L375.8 493.074L401.693 483.922C403.076 483.433 404.337 483.464 405.474 484.017C406.59 484.508 407.369 485.391 407.811 486.666C408.253 487.941 408.201 489.152 407.654 490.299C407.086 491.386 406.11 492.174 404.727 492.663L378.834 501.815L386.734 524.578L422.821 511.822C424.205 511.333 425.454 511.334 426.57 511.825C427.686 512.317 428.465 513.2 428.908 514.475C429.371 515.81 429.329 517.051 428.782 518.199C428.214 519.286 427.238 520.073 425.855 520.562L385.076 534.977Z" fill="#00FF75"/>
<path d="M455.146 507.176C453.974 507.952 452.726 508.202 451.402 507.925C450.079 507.648 449.032 506.917 448.263 505.734L412.755 451.13C411.951 449.893 411.704 448.634 412.014 447.352C412.288 446.016 413.012 444.96 414.184 444.184C415.782 443.125 417.497 443.066 419.329 444.007L477.229 478.011L474.671 479.705L466.162 412.989C466.035 410.919 466.771 409.355 468.37 408.296C469.542 407.52 470.79 407.27 472.113 407.548C473.402 407.771 474.449 408.501 475.253 409.738L510.76 464.342C511.53 465.525 511.75 466.802 511.422 468.173C511.147 469.509 510.451 470.548 509.332 471.289C508.16 472.065 506.912 472.315 505.588 472.037C504.264 471.76 503.218 471.03 502.449 469.847L474.494 426.857L475.83 425.395L482.898 482.334C482.902 484.332 482.157 485.825 480.665 486.813C478.907 487.977 477.087 487.991 475.203 486.853L427.283 458.702L428.62 457.24L456.575 500.23C457.344 501.413 457.591 502.672 457.316 504.008C457.042 505.344 456.318 506.4 455.146 507.176Z" fill="#00FF75"/>
<path d="M548.633 432.853C547.721 433.841 546.589 434.359 545.238 434.407C543.887 434.454 542.699 433.996 541.673 433.031L525.382 417.702L478.961 409.24C477.417 408.931 476.291 408.311 475.582 407.38C474.827 406.406 474.497 405.348 474.593 404.207C474.685 402.975 475.145 401.912 475.97 401.018C476.709 400.219 477.482 399.759 478.29 399.639C479.05 399.476 479.953 399.49 480.996 399.68L525.731 408.27L523.124 411.093L511.485 366.112C511.274 365.209 511.267 364.367 511.465 363.587C511.617 362.762 512.041 361.974 512.736 361.221C513.518 360.374 514.473 359.954 515.601 359.96C516.682 359.921 517.708 360.272 518.681 361.011C519.607 361.706 520.252 362.753 520.616 364.151L532.096 410.434L548.388 425.763C549.413 426.728 549.949 427.892 549.997 429.255C550.044 430.619 549.59 431.818 548.633 432.853Z" fill="#00FF75"/>
<path fill-rule="evenodd" clip-rule="evenodd" d="M242.836 283.064C249.71 283.064 255.283 277.44 255.283 270.502C255.283 263.565 249.71 257.941 242.836 257.941C235.962 257.941 230.389 263.565 230.389 270.502C230.389 277.44 235.962 283.064 242.836 283.064ZM242.836 288.089C252.46 288.089 260.262 280.215 260.262 270.502C260.262 260.79 252.46 252.916 242.836 252.916C233.212 252.916 225.41 260.79 225.41 270.502C225.41 280.215 233.212 288.089 242.836 288.089Z" fill="white"/>
<path fill-rule="evenodd" clip-rule="evenodd" d="M227.402 350.394C232.901 350.394 237.359 345.895 237.359 340.345C237.359 334.795 232.901 330.296 227.402 330.296C221.902 330.296 217.444 334.795 217.444 340.345C217.444 345.895 221.902 350.394 227.402 350.394ZM227.402 355.419C235.651 355.419 242.338 348.67 242.338 340.345C242.338 332.02 235.651 325.271 227.402 325.271C219.153 325.271 212.465 332.02 212.465 340.345C212.465 348.67 219.153 355.419 227.402 355.419Z" fill="white"/>
<path fill-rule="evenodd" clip-rule="evenodd" d="M357.846 310.197C360.596 310.197 362.825 307.947 362.825 305.172C362.825 302.397 360.596 300.148 357.846 300.148C355.097 300.148 352.868 302.397 352.868 305.172C352.868 307.947 355.097 310.197 357.846 310.197ZM357.846 315.222C363.346 315.222 367.804 310.722 367.804 305.172C367.804 299.622 363.346 295.123 357.846 295.123C352.347 295.123 347.889 299.622 347.889 305.172C347.889 310.722 352.347 315.222 357.846 315.222Z" fill="white"/>
<path fill-rule="evenodd" clip-rule="evenodd" d="M309.054 370.493C320.053 370.493 328.969 361.495 328.969 350.394C328.969 339.294 320.053 330.296 309.054 330.296C298.055 330.296 289.139 339.294 289.139 350.394C289.139 361.495 298.055 370.493 309.054 370.493ZM309.054 375.518C322.803 375.518 333.948 364.27 333.948 350.394C333.948 336.519 322.803 325.271 309.054 325.271C295.306 325.271 284.16 336.519 284.16 350.394C284.16 364.27 295.306 375.518 309.054 375.518Z" fill="white"/>
<path fill-rule="evenodd" clip-rule="evenodd" d="M208.98 225.783C213.105 225.783 216.448 222.408 216.448 218.246C216.448 214.083 213.105 210.709 208.98 210.709C204.856 210.709 201.512 214.083 201.512 218.246C201.512 222.408 204.856 225.783 208.98 225.783ZM208.98 230.807C215.854 230.807 221.427 225.183 221.427 218.246C221.427 211.308 215.854 205.684 208.98 205.684C202.106 205.684 196.533 211.308 196.533 218.246C196.533 225.183 202.106 230.807 208.98 230.807Z" fill="white"/>
<path fill-rule="evenodd" clip-rule="evenodd" d="M321.999 221.763C332.998 221.763 341.914 212.765 341.914 201.664C341.914 190.564 332.998 181.566 321.999 181.566C311 181.566 302.084 190.564 302.084 201.664C302.084 212.765 311 221.763 321.999 221.763ZM321.999 226.788C335.748 226.788 346.893 215.54 346.893 201.664C346.893 187.789 335.748 176.541 321.999 176.541C308.25 176.541 297.105 187.789 297.105 201.664C297.105 215.54 308.25 226.788 321.999 226.788Z" fill="white"/>
<path fill-rule="evenodd" clip-rule="evenodd" d="M370.293 184.58C374.418 184.58 377.762 181.206 377.762 177.043C377.762 172.881 374.418 169.506 370.293 169.506C366.169 169.506 362.825 172.881 362.825 177.043C362.825 181.206 366.169 184.58 370.293 184.58ZM370.293 189.605C377.168 189.605 382.74 183.981 382.74 177.043C382.74 170.106 377.168 164.482 370.293 164.482C363.419 164.482 357.846 170.106 357.846 177.043C357.846 183.981 363.419 189.605 370.293 189.605Z" fill="white"/>
</svg>
