<svg width="25" height="25" viewBox="0 0 25 25" fill="none" xmlns="http://www.w3.org/2000/svg">
<path fill-rule="evenodd" clip-rule="evenodd" d="M11.2374 2.27273C6.28634 2.27273 2.27273 6.28634 2.27273 11.2374C2.27273 16.1884 6.28634 20.202 11.2374 20.202C13.6562 20.202 15.8512 19.2441 17.4638 17.6869C17.4952 17.6454 17.5298 17.6055 17.5677 17.5677C17.6055 17.5298 17.6454 17.4952 17.6869 17.4638C19.2441 15.8512 20.202 13.6562 20.202 11.2374C20.202 6.28634 16.1884 2.27273 11.2374 2.27273ZM19.9464 18.3394C21.5269 16.4037 22.4747 13.9312 22.4747 11.2374C22.4747 5.03114 17.4436 0 11.2374 0C5.03114 0 0 5.03114 0 11.2374C0 17.4436 5.03114 22.4747 11.2374 22.4747C13.9312 22.4747 16.4037 21.5269 18.3394 19.9464L23.0601 24.6672C23.5039 25.1109 24.2234 25.1109 24.6672 24.6672C25.1109 24.2234 25.1109 23.5039 24.6672 23.0601L19.9464 18.3394Z" fill="#9F9F9F"/>
</svg>
