<svg width="42" height="30" viewBox="0 0 42 30" fill="none" xmlns="http://www.w3.org/2000/svg">
<path d="M36.0341 30H5.96591C4.38422 29.9981 2.86785 29.3675 1.74943 28.2464C0.631003 27.1252 0.00185753 25.6052 0 24.0197V5.9803C0.00185753 4.3948 0.631003 2.87477 1.74943 1.75365C2.86785 0.632526 4.38422 0.00186201 5.96591 0H36.0341C37.6158 0.00186201 39.1322 0.632526 40.2506 1.75365C41.369 2.87477 41.9981 4.3948 42 5.9803V24.0197C41.9981 25.6052 41.369 27.1252 40.2506 28.2464C39.1322 29.3675 37.6158 29.9981 36.0341 30ZM5.96591 2.11069C4.9421 2.11069 3.96021 2.51838 3.23627 3.24408C2.51232 3.96977 2.10562 4.95402 2.10562 5.9803V24.0197C2.10562 25.046 2.51232 26.0302 3.23627 26.7559C3.96021 27.4816 4.9421 27.8893 5.96591 27.8893H36.0341C37.0579 27.8893 38.0398 27.4816 38.7637 26.7559C39.4877 26.0302 39.8944 25.046 39.8944 24.0197V5.9803C39.8944 4.95402 39.4877 3.96977 38.7637 3.24408C38.0398 2.51838 37.0579 2.11069 36.0341 2.11069H5.96591Z" fill="white"/>
<path d="M21 19.2777C19.7013 19.2797 18.4372 18.8574 17.3994 18.0746L1.01073 5.64963C0.894941 5.56817 0.796714 5.46415 0.721918 5.34378C0.647123 5.22341 0.597294 5.08917 0.575407 4.94907C0.553521 4.80897 0.560026 4.66589 0.594534 4.52837C0.629042 4.39084 0.690845 4.2617 0.776252 4.14865C0.861659 4.03561 0.968918 3.94097 1.09162 3.87041C1.21433 3.79984 1.34996 3.75478 1.49043 3.73793C1.63089 3.72108 1.7733 3.73278 1.90915 3.77232C2.04501 3.81187 2.17151 3.87846 2.28112 3.96811L18.6698 16.4071C19.3428 16.9107 20.1602 17.1828 21 17.1828C21.8399 17.1828 22.6572 16.9107 23.3303 16.4071L39.719 3.96811C39.8286 3.87846 39.9551 3.81187 40.0909 3.77232C40.2268 3.73278 40.3692 3.72108 40.5097 3.73793C40.6501 3.75478 40.7858 3.79984 40.9085 3.87041C41.0312 3.94097 41.1384 4.03561 41.2238 4.14865C41.3092 4.2617 41.371 4.39084 41.4055 4.52837C41.4401 4.66589 41.4466 4.80897 41.4247 4.94907C41.4028 5.08917 41.353 5.22341 41.2782 5.34378C41.2034 5.46415 41.1051 5.56817 40.9893 5.64963L24.6006 18.0746C23.5628 18.8574 22.2988 19.2797 21 19.2777Z" fill="white"/>
<path d="M1.46689 27.0591C1.25336 27.0594 1.04479 26.9946 0.86884 26.8734C0.692892 26.7521 0.55789 26.5801 0.481748 26.3801C0.405607 26.1801 0.391924 25.9617 0.442517 25.7537C0.49311 25.5458 0.605586 25.3581 0.765021 25.2158L13.6795 13.6703C13.8879 13.4837 14.1618 13.3877 14.4409 13.4036C14.7199 13.4194 14.9813 13.5457 15.1674 13.7547C15.3536 13.9637 15.4493 14.2382 15.4335 14.518C15.4177 14.7977 15.2917 15.0597 15.0832 15.2463L2.16876 26.7917C1.97698 26.9667 1.72617 27.0622 1.46689 27.0591ZM40.5331 27.0591C40.2738 27.0622 40.023 26.9667 39.8312 26.7917L26.9168 15.2463C26.7083 15.0597 26.5823 14.7977 26.5665 14.518C26.5507 14.2382 26.6464 13.9637 26.8325 13.7547C27.0187 13.5457 27.28 13.4194 27.5591 13.4036C27.8381 13.3877 28.112 13.4837 28.3205 13.6703L41.2279 25.2158C41.3874 25.3581 41.4998 25.5458 41.5504 25.7537C41.601 25.9617 41.5873 26.1801 41.5112 26.3801C41.4351 26.5801 41.3001 26.7521 41.1241 26.8734C40.9482 26.9946 40.7396 27.0594 40.5261 27.0591H40.5331Z" fill="white"/>
</svg>
